<mxfile host="app.diagrams.net" modified="2023-11-11T10:08:19.611Z" agent="Mozilla/5.0 (Windows NT 10.0; Win64; x64) AppleWebKit/537.36 (KHTML, like Gecko) Chrome/119.0.0.0 Safari/537.36" etag="Krq4whcCRqmIQNRtENZ1" version="22.1.0" type="device">
  <diagram name="Trang-1" id="Hb33xli_GPp8fjIGqGy5">
    <mxGraphModel dx="794" dy="1633" grid="1" gridSize="10" guides="1" tooltips="1" connect="1" arrows="1" fold="1" page="1" pageScale="1" pageWidth="827" pageHeight="1169" math="0" shadow="0">
      <root>
        <mxCell id="0" />
        <mxCell id="1" parent="0" />
        <mxCell id="JHJsZCP_RoubWGv-RQ8A-19" value="" style="whiteSpace=wrap;html=1;aspect=fixed;" parent="1" vertex="1">
          <mxGeometry x="60" y="-230" width="910" height="910" as="geometry" />
        </mxCell>
        <mxCell id="JHJsZCP_RoubWGv-RQ8A-7" value="" style="rounded=0;whiteSpace=wrap;html=1;" parent="1" vertex="1">
          <mxGeometry x="90" y="-1040" width="700" height="570" as="geometry" />
        </mxCell>
        <mxCell id="JHJsZCP_RoubWGv-RQ8A-1" value="Student" style="shape=umlActor;verticalLabelPosition=bottom;verticalAlign=top;html=1;outlineConnect=0;" parent="1" vertex="1">
          <mxGeometry x="130" y="-890" width="30" height="60" as="geometry" />
        </mxCell>
        <mxCell id="JHJsZCP_RoubWGv-RQ8A-2" value="register new group" style="ellipse;whiteSpace=wrap;html=1;" parent="1" vertex="1">
          <mxGeometry x="351" y="-905" width="126" height="90" as="geometry" />
        </mxCell>
        <mxCell id="JHJsZCP_RoubWGv-RQ8A-6" value="register new group" style="shape=umlFrame;whiteSpace=wrap;html=1;pointerEvents=0;width=80;height=40;" parent="1" vertex="1">
          <mxGeometry x="260" y="-970" width="460" height="360" as="geometry" />
        </mxCell>
        <mxCell id="JHJsZCP_RoubWGv-RQ8A-8" value="Log in" style="ellipse;whiteSpace=wrap;html=1;" parent="1" vertex="1">
          <mxGeometry x="590" y="-940" width="120" height="80" as="geometry" />
        </mxCell>
        <mxCell id="JHJsZCP_RoubWGv-RQ8A-9" value="Show student list" style="ellipse;whiteSpace=wrap;html=1;" parent="1" vertex="1">
          <mxGeometry x="590" y="-820" width="120" height="80" as="geometry" />
        </mxCell>
        <mxCell id="JHJsZCP_RoubWGv-RQ8A-10" value="Find student" style="ellipse;whiteSpace=wrap;html=1;" parent="1" vertex="1">
          <mxGeometry x="580" y="-720" width="120" height="80" as="geometry" />
        </mxCell>
        <mxCell id="JHJsZCP_RoubWGv-RQ8A-12" value="&amp;lt;&amp;lt;include&amp;gt;&amp;gt;" style="html=1;verticalAlign=bottom;endArrow=open;dashed=1;endSize=8;curved=0;rounded=0;" parent="1" source="JHJsZCP_RoubWGv-RQ8A-2" target="JHJsZCP_RoubWGv-RQ8A-8" edge="1">
          <mxGeometry x="-0.3381" y="3" relative="1" as="geometry">
            <mxPoint x="540" y="-816" as="sourcePoint" />
            <mxPoint x="460" y="-816" as="targetPoint" />
            <mxPoint as="offset" />
          </mxGeometry>
        </mxCell>
        <mxCell id="JHJsZCP_RoubWGv-RQ8A-15" value="&amp;lt;&amp;lt;include&amp;gt;&amp;gt;" style="html=1;verticalAlign=bottom;endArrow=open;dashed=1;endSize=8;curved=0;rounded=0;" parent="1" target="JHJsZCP_RoubWGv-RQ8A-9" edge="1">
          <mxGeometry x="-0.3924" y="10" relative="1" as="geometry">
            <mxPoint x="472.99" y="-841.26" as="sourcePoint" />
            <mxPoint x="579.99" y="-860.26" as="targetPoint" />
            <mxPoint as="offset" />
          </mxGeometry>
        </mxCell>
        <mxCell id="JHJsZCP_RoubWGv-RQ8A-16" value="&amp;lt;&amp;lt;extend&amp;gt;&amp;gt;" style="html=1;verticalAlign=bottom;endArrow=open;dashed=1;endSize=8;curved=0;rounded=0;entryX=0.577;entryY=1.034;entryDx=0;entryDy=0;entryPerimeter=0;" parent="1" source="JHJsZCP_RoubWGv-RQ8A-10" target="JHJsZCP_RoubWGv-RQ8A-2" edge="1">
          <mxGeometry x="0.0148" y="-11" relative="1" as="geometry">
            <mxPoint x="440" y="-782.29" as="sourcePoint" />
            <mxPoint x="552.01" y="-748.03" as="targetPoint" />
            <mxPoint as="offset" />
          </mxGeometry>
        </mxCell>
        <mxCell id="JHJsZCP_RoubWGv-RQ8A-18" value="" style="endArrow=none;html=1;rounded=0;entryX=0.015;entryY=0.501;entryDx=0;entryDy=0;entryPerimeter=0;" parent="1" edge="1">
          <mxGeometry width="50" height="50" relative="1" as="geometry">
            <mxPoint x="158.11" y="-870" as="sourcePoint" />
            <mxPoint x="351.0000000000001" y="-869.91" as="targetPoint" />
            <Array as="points">
              <mxPoint x="198.11" y="-870" />
            </Array>
          </mxGeometry>
        </mxCell>
        <mxCell id="JHJsZCP_RoubWGv-RQ8A-20" value="Resgiter new topic" style="shape=umlFrame;whiteSpace=wrap;html=1;pointerEvents=0;width=100;height=40;" parent="1" vertex="1">
          <mxGeometry x="350" y="-200" width="550" height="720" as="geometry" />
        </mxCell>
        <mxCell id="JHJsZCP_RoubWGv-RQ8A-21" value="Student" style="shape=umlActor;verticalLabelPosition=bottom;verticalAlign=top;html=1;" parent="1" vertex="1">
          <mxGeometry x="150" width="30" height="60" as="geometry" />
        </mxCell>
        <mxCell id="JHJsZCP_RoubWGv-RQ8A-24" value="Resgiter new topic" style="ellipse;whiteSpace=wrap;html=1;" parent="1" vertex="1">
          <mxGeometry x="375" y="-30" width="130" height="100" as="geometry" />
        </mxCell>
        <mxCell id="JHJsZCP_RoubWGv-RQ8A-25" value="resgiterr new group" style="ellipse;whiteSpace=wrap;html=1;" parent="1" vertex="1">
          <mxGeometry x="730" y="-60" width="120" height="80" as="geometry" />
        </mxCell>
        <mxCell id="JHJsZCP_RoubWGv-RQ8A-26" value="Show topic list" style="ellipse;whiteSpace=wrap;html=1;" parent="1" vertex="1">
          <mxGeometry x="730" y="40" width="120" height="80" as="geometry" />
        </mxCell>
        <mxCell id="JHJsZCP_RoubWGv-RQ8A-30" value="&amp;lt;&amp;lt;Include&amp;gt;&amp;gt;" style="html=1;verticalAlign=bottom;endArrow=open;dashed=1;endSize=8;curved=0;rounded=0;exitX=1;exitY=0;exitDx=0;exitDy=0;" parent="1" source="JHJsZCP_RoubWGv-RQ8A-24" target="JHJsZCP_RoubWGv-RQ8A-25" edge="1">
          <mxGeometry relative="1" as="geometry">
            <mxPoint x="680" y="30" as="sourcePoint" />
            <mxPoint x="600" y="30" as="targetPoint" />
          </mxGeometry>
        </mxCell>
        <mxCell id="JHJsZCP_RoubWGv-RQ8A-33" value="&amp;lt;&amp;lt;Include&amp;gt;&amp;gt;" style="html=1;verticalAlign=bottom;endArrow=open;dashed=1;endSize=8;curved=0;rounded=0;exitX=0.903;exitY=0.768;exitDx=0;exitDy=0;exitPerimeter=0;" parent="1" source="JHJsZCP_RoubWGv-RQ8A-24" target="JHJsZCP_RoubWGv-RQ8A-26" edge="1">
          <mxGeometry relative="1" as="geometry">
            <mxPoint x="564" y="50" as="sourcePoint" />
            <mxPoint x="716.0000000000001" y="95.51999999999975" as="targetPoint" />
          </mxGeometry>
        </mxCell>
        <mxCell id="JHJsZCP_RoubWGv-RQ8A-35" value="show topic detail" style="ellipse;whiteSpace=wrap;html=1;" parent="1" vertex="1">
          <mxGeometry x="730" y="150" width="120" height="80" as="geometry" />
        </mxCell>
        <mxCell id="JHJsZCP_RoubWGv-RQ8A-36" value="&amp;lt;&amp;lt;extend&amp;gt;&amp;gt;" style="html=1;verticalAlign=bottom;endArrow=open;dashed=1;endSize=8;curved=0;rounded=0;entryX=0.621;entryY=0.982;entryDx=0;entryDy=0;entryPerimeter=0;" parent="1" source="JHJsZCP_RoubWGv-RQ8A-35" target="JHJsZCP_RoubWGv-RQ8A-24" edge="1">
          <mxGeometry x="-0.2125" y="-11" relative="1" as="geometry">
            <mxPoint x="450" y="160" as="sourcePoint" />
            <mxPoint x="689" y="186" as="targetPoint" />
            <mxPoint as="offset" />
          </mxGeometry>
        </mxCell>
        <mxCell id="JHJsZCP_RoubWGv-RQ8A-37" value="" style="endArrow=none;html=1;rounded=0;entryX=0;entryY=0.5;entryDx=0;entryDy=0;exitX=1;exitY=0.3333333333333333;exitDx=0;exitDy=0;exitPerimeter=0;" parent="1" source="JHJsZCP_RoubWGv-RQ8A-21" target="JHJsZCP_RoubWGv-RQ8A-24" edge="1">
          <mxGeometry width="50" height="50" relative="1" as="geometry">
            <mxPoint x="250" y="40" as="sourcePoint" />
            <mxPoint x="300" y="-10" as="targetPoint" />
          </mxGeometry>
        </mxCell>
        <mxCell id="JHJsZCP_RoubWGv-RQ8A-39" value="find topic" style="ellipse;whiteSpace=wrap;html=1;" parent="1" vertex="1">
          <mxGeometry x="707" y="260" width="120" height="80" as="geometry" />
        </mxCell>
        <mxCell id="JHJsZCP_RoubWGv-RQ8A-51" value="&amp;lt;&amp;lt;extend&amp;gt;&amp;gt;" style="html=1;verticalAlign=bottom;endArrow=open;dashed=1;endSize=8;curved=0;rounded=0;entryX=0.469;entryY=1.001;entryDx=0;entryDy=0;entryPerimeter=0;exitX=0;exitY=0.5;exitDx=0;exitDy=0;" parent="1" source="JHJsZCP_RoubWGv-RQ8A-39" target="JHJsZCP_RoubWGv-RQ8A-24" edge="1">
          <mxGeometry relative="1" as="geometry">
            <mxPoint x="540" y="170" as="sourcePoint" />
            <mxPoint x="460" y="170" as="targetPoint" />
          </mxGeometry>
        </mxCell>
      </root>
    </mxGraphModel>
  </diagram>
</mxfile>
